PathFileType	4	(x/y/z)	S02_M20_T09
DataRate	CameraRate	NumFrames	NumMarkers	Units	OrigDataRate	OrigDataStartFrame	OrigNumFrames
240	240	4	51	mm	240	340	453
Frame#	Time	Sternum			R.Acromium			L.Acromium			Top.Head			R.ASIS			L.ASIS			R.PSIS			L.PSIS			R.Great.Tro			L.Great.Tro			R.Iliac.Crest			L.Iliac.Crest			V.Sacral			R.Thigh.Upper.Post			R.Thigh.Lower.Ant			R.Thigh.Lower.Post			R.Thigh.Upper.Ant			R.Knee.Lat			R.Knee.Med			R.Shank.Upper.Post			R.Shank.Lower.Ant			R.Shank.Lower.Post			R.Shank.Upper.Ant			R.Ankle.Lat			R.Ankle.Med			R.Heel.Upper			R.Heel.Med			R.Heel.Lat			R.Toe.Lat			R.Toe.Med			R.Toe.Tip			L.Thigh.Upper.Post			L.Thigh.Lower.Ant			L.Thigh.Lower.Post			L.Thigh.Upper.Ant			L.Knee.Lat			L.Knee.Med			L.Shank.Upper.Post			L.Shank.Lower.Ant			L.Shank.Lower.Post			L.Shank.Upper.Ant			L.Ankle.Lat			L.Ankle.Med			L.Heel.Upper			L.Heel.Med			L.Heel.Lat			L.Toe.Lat			L.Toe.Med			L.Toe.Tip			Cervical.Spine			Back			
		X1	Y1	Z1	X2	Y2	Z2	X3	Y3	Z3	X4	Y4	Z4	X5	Y5	Z5	X6	Y6	Z6	X7	Y7	Z7	X8	Y8	Z8	X9	Y9	Z9	X10	Y10	Z10	X11	Y11	Z11	X12	Y12	Z12	X13	Y13	Z13	X14	Y14	Z14	X15	Y15	Z15	X16	Y16	Z16	X17	Y17	Z17	X18	Y18	Z18	X19	Y19	Z19	X20	Y20	Z20	X21	Y21	Z21	X22	Y22	Z22	X23	Y23	Z23	X24	Y24	Z24	X25	Y25	Z25	X26	Y26	Z26	X27	Y27	Z27	X28	Y28	Z28	X29	Y29	Z29	X30	Y30	Z30	X31	Y31	Z31	X32	Y32	Z32	X33	Y33	Z33	X34	Y34	Z34	X35	Y35	Z35	X36	Y36	Z36	X37	Y37	Z37	X38	Y38	Z38	X39	Y39	Z39	X40	Y40	Z40	X41	Y41	Z41	X42	Y42	Z42	X43	Y43	Z43	X44	Y44	Z44	X45	Y45	Z45	X46	Y46	Z46	X47	Y47	Z47	X48	Y48	Z48	X49	Y49	Z49	X50	Y50	Z50	X51	Y51	Z51	

340	1.4125	366.74	1069	277.68	273.94	1307.3	418.28	249.65	1307.4	127.13	286.47	1594	272.84	318.4	879.42	399.43	344.3	893.3	187.05	116.35	936.84	334.03	116.45	947.11	260.08	222.02	759.9	486.27	240.15	817.66	91.056	222.77	934.61	455.46	223.95	948.3	115.25	89.575	896.75	284.7	202.63	566.86	474.56	251.55	479.22	456.36	178.52	480.53	460.27	271.59	566.21	467.26	178.55	403.39	454.03	196.04	377.23	314	-22.793	342.65	422.61	-50.858	236.38	410.39	-80.581	297.64	411.4	4.7557	275.93	430.22	-148.47	224.51	398.84	-122.29	227.3	315.34	-166.94	283.09	344.69	-188.45	268.45	308.57	-203.14	269.73	372.59	-180.83	106.8	400.31	-154.77	89.322	293.77	-125.8	44.521	350.13	297.25	581.38	120.18	396.19	536.85	140.64	326.63	499.88	149.71	357.46	619.79	112.1	406.64	453.75	157.15	389.23	457.52	292.27	330.44	280.28	158.05	397.82	195.01	184.47	327.09	207.94	177.11	394.56	269.07	164.99	350.37	95.921	194.07	352.2	94.941	278.92	285.77	67.055	228.65	292.42	41.608	263.19	292.48	39.264	200.68	460.28	34.63	181.05	475.28	44.629	292.02	538.13	59.876	249	182.46	1368.5	281.32	102.25	1118.9	303.21
341	1.4167	372.13	1070.1	277.44	278.99	1308.4	418.06	255.02	1308.3	126.72	291.75	1595	272.65	323.91	880.38	399.2	349.54	893.79	186.71	121.7	937.67	333.74	121.81	947.96	259.79	227.96	760.8	486.1	245.41	818.45	90.778	228.04	935.41	455.25	229.4	949.17	114.85	94.964	897.53	284.39	211.12	567.68	475.07	261.01	480.46	457.36	187.95	481.03	461	280.1	567.71	467.96	188.91	403.99	455.07	206.82	377.75	314.89	-12.017	343.91	423.12	-40.469	237.74	410.91	-69.974	299.11	411.78	15.262	277.11	430.88	-138.1	226.37	399.06	-111.62	228.84	315.7	-156.49	284.69	344.58	-177.82	269.85	308.45	-192.8	271.4	372.39	-170.33	108.67	401.03	-143.68	90.618	294.74	-115.04	45.725	351.54	300.46	581.85	120.1	399.09	536.58	140.37	329.25	500.12	149.56	360.96	619.8	111.91	408.94	453.4	156.93	391.38	457.17	292.02	331.65	280.41	158.07	398.57	194.75	184.37	327.9	208.1	177.13	395.71	268.83	164.87	350.55	95.956	194.14	352.32	94.992	278.96	285.82	67.14	228.69	292.47	41.675	263.21	292.52	39.361	200.7	460.3	34.63	181.05	475.33	44.562	292.05	538.19	59.746	249.02	187.71	1369.4	280.89	107.65	1119.8	302.69
342	1.4208	377.47	1071.1	277.26	283.97	1309.4	417.88	260.36	1309.1	126.34	296.99	1596.1	272.5	329.36	881.38	399.03	354.76	894.25	186.41	127	938.55	333.41	127.14	948.87	259.47	233.84	761.77	485.94	250.61	819.25	90.525	233.23	936.27	455.06	234.88	950.04	114.46	100.32	898.37	284.03	219.62	568.57	475.57	270.47	481.8	458.33	197.39	481.62	461.72	288.61	569.28	468.65	199.31	404.68	456.07	217.54	378.44	315.74	-1.2021	345.11	423.61	-29.932	239.02	411.39	-59.277	300.46	412.13	25.877	278.25	431.49	-127.59	228.06	399.23	-100.84	230.26	316.05	-146.1	286.04	344.42	-167.22	270.92	308.3	-182.45	272.74	372.18	-159.36	110.35	401.78	-132.14	91.75	295.75	-103.68	46.976	352.96	303.58	582.34	120.05	401.89	536.32	140.12	331.77	500.38	149.43	364.37	619.82	111.74	411.14	453.08	156.73	393.52	456.87	291.81	332.81	280.54	158.09	399.28	194.51	184.28	328.69	208.26	177.15	396.81	268.61	164.76	350.72	95.992	194.2	352.44	95.051	279	285.87	67.23	228.73	292.53	41.749	263.24	292.55	39.461	200.71	460.32	34.629	181.06	475.38	44.499	292.08	538.26	59.625	249.04	192.94	1370.4	280.47	113	1120.7	302.15
343	1.425	382.75	1072.1	277.13	288.91	1310.5	417.73	265.68	1310	125.97	302.21	1597.1	272.37	334.77	882.41	398.9	359.96	894.69	186.15	132.28	939.48	333.05	132.44	949.82	259.11	239.65	762.8	485.79	255.74	820.03	90.296	238.36	937.18	454.87	240.37	950.92	114.08	105.63	899.26	283.65	228.13	569.54	476.08	279.95	483.24	459.26	206.85	482.3	462.42	297.12	570.95	469.32	209.74	405.46	457.04	228.19	379.27	316.53	9.6494	346.24	424.08	-19.25	240.2	411.83	-48.495	301.69	412.48	36.601	279.34	432.04	-116.92	229.58	399.37	-89.955	231.56	316.39	-135.75	287.13	344.22	-156.62	271.67	308.14	-172.08	273.74	371.94	-147.94	111.81	402.58	-120.18	92.714	296.78	-91.74	48.248	354.4	306.61	582.84	120.04	404.59	536.07	139.89	334.21	500.66	149.33	367.69	619.85	111.59	413.23	452.78	156.54	395.68	456.61	291.62	333.93	280.68	158.1	399.96	194.29	184.2	329.44	208.42	177.16	397.86	268.41	164.67	350.89	96.028	194.27	352.56	95.117	279.03	285.92	67.326	228.76	292.58	41.829	263.26	292.59	39.564	200.73	460.34	34.625	181.06	475.42	44.439	292.1	538.32	59.512	249.05	198.14	1371.4	280.07	118.31	1121.6	301.58
